<svg xmlns="http://www.w3.org/2000/svg" width="18.527" height="18.734" viewBox="0 0 18.527 18.734">
  <g id="_105400502716276584993773" data-name="105400502716276584993773" transform="translate(-2.41 -2.08)">
    <path id="Path_50643" data-name="Path 50643" d="M20.311,45.268H17.622a3,3,0,0,0-5.864,0H3.036a.626.626,0,0,0,0,1.252h8.731a3,3,0,0,0,5.864,0h2.68a.626.626,0,0,0,0-1.252Z" transform="translate(0 -28.054)" fill="#ff2e5d"/>
    <path id="Path_50644" data-name="Path 50644" d="M3.036,26.1H4.72a3,3,0,0,0,5.864,0h9.727a.626.626,0,0,0,0-1.252H10.584a3,3,0,0,0-5.864,0H3.036a.626.626,0,0,0,0,1.252Z" transform="translate(0 -14.027)" fill="#ff2e5d"/>
    <path id="Path_50645" data-name="Path 50645" d="M3.036,5.68h5.7a3.006,3.006,0,0,0,5.867,0h5.7a.626.626,0,0,0,0-1.252h-5.7a3.006,3.006,0,0,0-5.867,0h-5.7a.626.626,0,0,0,0,1.252Z" fill="#ff2e5d"/>
  </g>
</svg>
